<svg xmlns="http://www.w3.org/2000/svg" viewBox="0 0 36 36" fill="none">
  <rect width="36" height="36" rx="11" fill="url(#g)"/>
  <path d="M14 10v5.2c0 1.2-.9 2.2-2.1 2.3V26M11.9 10v4.4M16.1 10v4.4" stroke="white" stroke-width="1.7" stroke-linecap="round" stroke-linejoin="round"/>
  <path d="M23 10c-1.7 0-2.6 1.9-2.6 3.6 0 1.3.9 2.4 2.1 2.6V26" stroke="white" stroke-width="1.7" stroke-linecap="round" stroke-linejoin="round"/>
  <path d="M26.5 8.2c.2 1.1.5 1.4 1.6 1.6-1.1.2-1.4.5-1.6 1.6-.2-1.1-.5-1.4-1.6-1.6 1.1-.2 1.4-.5 1.6-1.6Z" fill="white"/>
  <defs>
    <linearGradient id="g" x1="0" y1="0" x2="36" y2="36" gradientUnits="userSpaceOnUse">
      <stop stop-color="#FF6B35"/>
      <stop offset="1" stop-color="#FFB703"/>
    </linearGradient>
  </defs>
</svg>
